# Blender 4.5.3 LTS
# www.blender.org
mtllib ship.mtl
o cabin
v -0.601354 0.461483 1.099147
v -0.529634 0.860619 0.988454
v -0.601354 0.461483 -0.757152
v -0.529634 0.860619 -0.646459
v 0.601354 0.461483 1.099147
v 0.529634 0.860619 0.988454
v 0.601354 0.461483 -0.757152
v 0.529634 0.860619 -0.646459
vn -0.9842 0.1769 -0.0000
vn -0.0000 0.2672 -0.9636
vn 0.9842 0.1769 -0.0000
vn -0.0000 0.2672 0.9636
vn -0.0000 -1.0000 -0.0000
vn -0.0000 1.0000 -0.0000
vt 0.375000 0.000000
vt 0.625000 0.000000
vt 0.625000 0.250000
vt 0.375000 0.250000
vt 0.625000 0.500000
vt 0.375000 0.500000
vt 0.625000 0.750000
vt 0.375000 0.750000
vt 0.625000 1.000000
vt 0.375000 1.000000
vt 0.125000 0.500000
vt 0.125000 0.750000
vt 0.875000 0.500000
vt 0.875000 0.750000
s 0
usemtl Red
f 1/1/1 2/2/1 4/3/1 3/4/1
f 3/4/2 4/3/2 8/5/2 7/6/2
f 7/6/3 8/5/3 6/7/3 5/8/3
f 5/8/4 6/7/4 2/9/4 1/10/4
f 3/11/5 7/6/5 5/8/5 1/12/5
f 8/5/6 4/13/6 2/14/6 6/7/6
o cabin_roof
v -0.601354 0.833385 1.099147
v -0.529634 0.909690 0.988454
v -0.601354 0.833385 -0.757152
v -0.529634 0.909690 -0.646459
v 0.601354 0.833385 1.099147
v 0.529634 0.909690 0.988454
v 0.601354 0.833385 -0.757152
v 0.529634 0.909690 -0.646459
vn -0.7287 0.6849 -0.0000
vn -0.0000 0.8233 -0.5676
vn 0.7287 0.6849 -0.0000
vn -0.0000 0.8233 0.5676
vn -0.0000 -1.0000 -0.0000
vn -0.0000 1.0000 -0.0000
vt 0.375000 0.000000
vt 0.625000 0.000000
vt 0.625000 0.250000
vt 0.375000 0.250000
vt 0.625000 0.500000
vt 0.375000 0.500000
vt 0.625000 0.750000
vt 0.375000 0.750000
vt 0.625000 1.000000
vt 0.375000 1.000000
vt 0.125000 0.500000
vt 0.125000 0.750000
vt 0.875000 0.500000
vt 0.875000 0.750000
s 0
usemtl Red
f 9/15/7 10/16/7 12/17/7 11/18/7
f 11/18/8 12/17/8 16/19/8 15/20/8
f 15/20/9 16/19/9 14/21/9 13/22/9
f 13/22/10 14/21/10 10/23/10 9/24/10
f 16/19/12 12/27/12 10/28/12 14/21/12
usemtl Material
f 11/25/11 15/20/11 13/22/11 9/26/11
o Body
v 0.000000 0.465251 -1.864497
v 0.000000 0.886649 -1.946586
v 0.000000 0.536933 1.867022
v 0.000000 0.642760 1.867022
v -0.541890 -0.036590 1.210980
v -0.526993 0.465251 1.287372
v -0.720476 -0.030096 -1.034360
v -0.631258 0.465251 -1.024555
v -0.707107 0.471423 -1.741467
v -0.610194 0.465251 -1.640670
v 0.000000 -0.409356 -1.603388
v 0.000000 -0.398699 1.211697
v -0.389851 0.320138 -1.633910
v 0.000000 0.284474 -1.683954
v -0.609758 0.530975 1.347877
v -0.814767 0.715006 -1.034360
v -0.114562 0.465251 1.664651
v -0.707107 0.886649 -1.823556
v 0.000000 0.332689 1.565193
v -0.273831 0.388139 1.503638
v 0.541890 -0.036590 1.210980
v 0.526993 0.465251 1.287372
v 0.720476 -0.030096 -1.034360
v 0.631258 0.465251 -1.024555
v 0.707107 0.471423 -1.741467
v 0.610194 0.465251 -1.640670
v 0.389851 0.320138 -1.633910
v 0.609758 0.530975 1.347877
v 0.814767 0.715006 -1.034360
v 0.114562 0.465251 1.664651
v 0.707107 0.886649 -1.823556
v 0.273831 0.388139 1.503638
vn -0.6009 -0.3671 0.7100
vn -0.9885 -0.1301 0.0766
vn -0.9888 -0.0888 -0.1199
vn -0.1683 -0.1885 -0.9675
vn -0.1349 -0.7197 -0.6810
vn -0.4637 -0.8860 0.0034
vn -0.5573 -0.5455 -0.6260
vn -0.5552 -0.8307 0.0418
vn -0.2800 -0.4181 0.8642
vn -0.1368 -0.1143 -0.9840
vn 0.4818 0.6134 -0.6258
vn 0.7620 0.6471 -0.0248
vn 0.9003 0.4144 0.1331
vn -0.2818 -0.7946 0.5377
vn -0.4948 -0.2592 0.8294
vn -0.0000 1.0000 -0.0000
vn 0.6009 -0.3671 0.7100
vn 0.9885 -0.1301 0.0766
vn 0.9888 -0.0888 -0.1199
vn -0.3388 0.1799 0.9235
vn 0.1349 -0.7197 -0.6810
vn 0.4637 -0.8860 0.0034
vn 0.5573 -0.5455 -0.6260
vn 0.5552 -0.8307 0.0418
vn 0.2800 -0.4181 0.8642
vn 0.1368 -0.1143 -0.9840
vn -0.4818 0.6134 -0.6258
vn -0.7620 0.6471 -0.0248
vn -0.9003 0.4144 0.1331
vn 0.2818 -0.7946 0.5377
vn 0.4948 -0.2592 0.8294
vn -0.0000 0.7518 -0.6594
vn -0.1699 -0.1911 -0.9668
vn -0.1553 0.4231 0.8927
vn 0.1553 0.4231 0.8927
vn 0.3388 0.1799 0.9235
vn 0.1699 -0.1884 -0.9673
vn 0.1683 -0.1912 -0.9670
vt 0.500000 0.500000
vt 0.500000 1.000000
vt 0.375000 1.000000
vt 0.436834 0.500000
vt 0.375000 0.500000
vt 0.250000 1.000000
vt 0.250000 0.500000
vt 0.125000 1.000000
vt 0.125000 0.500000
vt 0.000000 0.500000
vt 0.000000 1.000000
vt 0.000000 0.241607
vt 0.068917 0.275667
vt 0.000000 0.000000
vt 0.313985 0.313985
vt 0.460786 1.000000
vt 0.377846 1.000000
vt 0.230299 1.000000
vt 0.123911 1.000000
s 0
usemtl Red
f 19/29/13 20/30/13 31/31/13 36/32/13
f 21/33/14 31/31/14 32/34/14 23/35/14
f 23/35/15 32/34/15 34/36/15 25/37/15
f 17/38/16 34/36/16 18/39/16
f 17/38/17 30/40/17 29/41/17 25/37/17
f 27/42/18 28/42/18 23/35/18
f 23/35/19 25/37/19 29/41/19 27/42/19
f 23/35/20 28/42/20 21/33/20
f 21/33/21 28/42/21 35/43/21 36/32/21
f 29/41/22 30/40/22 27/42/22
f 33/44/23 22/45/23 31/31/23 20/30/23
f 22/45/24 24/46/24 32/34/24 31/31/24
f 24/46/25 26/47/25 34/36/25 32/34/25
f 36/32/26 35/43/26 19/29/26
f 36/32/27 31/31/27 21/33/27
f 19/29/29 48/32/29 44/31/29 20/30/29
f 37/33/30 39/35/30 45/34/30 44/31/30
f 39/35/31 41/37/31 47/36/31 45/34/31
f 17/42/32 42/42/32 18/42/32
f 17/38/33 41/37/33 43/41/33 30/40/33
f 27/42/34 39/35/34 28/42/34
f 39/35/35 27/42/35 43/41/35 41/37/35
f 39/35/36 37/33/36 28/42/36
f 37/33/37 48/32/37 35/43/37 28/42/37
f 43/41/38 27/42/38 30/40/38
f 46/44/39 20/30/39 44/31/39 38/45/39
f 38/45/40 44/31/40 45/34/40 40/46/40
f 40/46/41 45/34/41 47/36/41 42/47/41
f 48/32/42 19/29/42 35/43/42
f 48/32/43 37/33/43 44/31/43
f 33/44/44 20/30/44 46/44/44
f 25/37/45 34/36/45 17/38/45
f 18/42/46 42/47/46 47/36/46
f 34/36/47 26/47/47 18/39/47
f 26/42/48 17/42/48 18/42/48
f 41/37/49 17/38/49 18/39/49
f 47/36/50 41/37/50 18/42/50
usemtl Material
f 22/45/28 33/44/28 26/47/28 24/46/28
f 33/44/28 17/42/28 26/47/28
f 38/45/28 40/46/28 42/47/28 46/44/28
f 46/44/28 42/47/28 17/42/28
f 33/44/28 46/44/28 17/42/28
o Sail
v 0.896402 2.145647 -1.356650
v 0.914049 2.145797 -1.347240
v 0.892889 1.542488 -1.340456
v 0.910536 1.542638 -1.331046
v -0.087584 1.479837 0.499242
v -0.069936 1.479987 0.508653
v -0.023110 3.735881 0.342402
v -0.005463 3.736031 0.351812
v 0.307975 4.756067 -0.294738
v 0.325622 4.756217 -0.285328
v 0.719831 3.627500 -1.049126
v 0.737479 3.627650 -1.039715
v 0.034175 0.248305 0.169525
v 0.069775 4.580911 0.056872
v 0.072638 0.249565 0.248628
v 0.093130 4.581676 0.104903
v 0.009284 0.250537 0.309649
v 0.054661 4.582266 0.141956
v -0.068335 0.249878 0.268259
v 0.007530 4.581865 0.116823
v -0.052952 0.248498 0.181658
v 0.016871 4.581028 0.064239
v 0.000000 0.249326 0.233597
vn 0.4705 -0.0264 -0.8820
vn 0.0207 -0.9995 -0.0230
vn -0.4697 0.0746 0.8797
vn -0.3886 0.5755 0.7196
vn 0.8824 0.0075 0.4705
vn 0.3703 0.6058 -0.7041
vn 0.4561 0.2326 -0.8590
vn -0.8824 -0.0075 -0.4705
vn 0.8993 -0.0188 -0.4370
vn 0.6937 0.0206 0.7199
vn -0.4704 0.0391 0.8816
vn -0.0000 0.9999 -0.0159
vn -0.9845 0.0111 -0.1751
vn -0.1379 -0.0246 -0.9901
vn -0.0000 -0.9999 0.0159
vt 1.000000 0.500000
vt 1.000000 1.000000
vt 0.833333 1.000000
vt 0.833333 0.500000
vt 0.666667 1.000000
vt 0.666667 0.500000
vt 0.500000 1.000000
vt 0.500000 0.500000
vt 0.333333 1.000000
vt 0.333333 0.500000
vt 0.457846 0.370000
vt 0.250000 0.490000
vt 0.042154 0.370000
vt 0.042154 0.130000
vt 0.250000 0.010000
vt 0.457846 0.130000
vt 0.166667 1.000000
vt 0.166667 0.500000
vt -0.000000 1.000000
vt -0.000000 0.500000
vt 0.750000 0.490000
vt 0.957846 0.370000
vt 0.957846 0.130000
vt 0.750000 0.010000
vt 0.542154 0.130000
vt 0.542154 0.370000
vt 0.800000 1.000000
vt 0.800000 0.500000
vt 0.600000 1.000000
vt 0.600000 0.500000
vt 0.400000 1.000000
vt 0.400000 0.500000
vt 0.478254 0.324164
vt 0.250000 0.490000
vt 0.021746 0.324164
vt 0.108932 0.055836
vt 0.391068 0.055836
vt 0.200000 1.000000
vt 0.200000 0.500000
vt 0.000000 1.000000
vt 0.000000 0.500000
vt 0.750000 0.490000
vt 0.978254 0.324164
vt 0.750000 0.257078
vt 0.891068 0.055836
vt 0.608932 0.055836
vt 0.521746 0.324164
s 0
usemtl Red
f 49/48/51 50/49/51 52/50/51 51/51/51
f 51/51/52 52/50/52 54/52/52 53/53/52
f 53/53/53 54/52/53 56/54/53 55/55/53
f 55/55/54 56/54/54 58/56/54 57/57/54
f 52/58/55 50/59/55 60/60/55 58/61/55 56/62/55 54/63/55
f 57/57/56 58/56/56 60/64/56 59/65/56
f 59/65/57 60/64/57 50/66/57 49/67/57
f 49/68/58 51/69/58 53/70/58 55/71/58 57/72/58 59/73/58
usemtl Material
f 61/48/59 62/49/59 64/74/59 63/75/59
f 63/75/60 64/74/60 66/76/60 65/77/60
f 65/77/61 66/76/61 68/78/61 67/79/61
f 64/80/62 62/81/62 70/82/62 68/83/62 66/84/62
f 67/79/63 68/78/63 70/85/63 69/86/63
f 69/86/64 70/85/64 62/87/64 61/88/64
f 61/89/65 63/90/65 71/91/65
f 63/90/65 65/92/65 71/91/65
f 65/92/65 67/93/65 71/91/65
f 67/93/65 69/94/65 71/91/65
f 69/94/65 61/89/65 71/91/65
o Sail.001
v 0.575674 1.488386 0.469900
v 0.587007 1.488095 0.475937
v 0.573418 1.101164 0.455464
v 0.584751 1.100873 0.461501
v -0.056247 0.985325 1.631923
v -0.044914 0.985034 1.637960
v -0.014841 2.437645 1.624222
v -0.003508 2.437354 1.630259
v 0.197783 3.117681 1.257860
v 0.209116 3.117389 1.263897
v 0.462279 2.425433 0.727953
v 0.473613 2.425142 0.733990
v 0.021947 0.209618 1.369946
v 0.044810 2.990959 1.475995
v 0.046649 0.207171 1.420693
v 0.059809 2.989473 1.506809
v 0.005962 0.205284 1.459841
v 0.035103 2.988327 1.530580
v -0.043885 0.206564 1.433288
v 0.004836 2.989105 1.514457
v -0.034006 0.209243 1.377729
v 0.010834 2.990731 1.480721
v 0.000000 0.207636 1.411050
vn 0.4705 0.0301 -0.8819
vn 0.0207 -0.9960 -0.0870
vn -0.4697 0.0181 0.8826
vn -0.3886 0.5282 0.7550
vn 0.8824 -0.0227 0.4700
vn 0.3703 0.6497 -0.6639
vn 0.4561 0.2872 -0.8423
vn -0.8824 0.0227 -0.4700
vn 0.8993 0.0093 -0.4373
vn 0.6937 -0.0256 0.7198
vn -0.4704 -0.0175 0.8823
vn -0.0000 0.9988 0.0482
vn -0.9845 0.0223 -0.1740
vn -0.1379 0.0389 -0.9897
vn -0.0000 -0.9988 -0.0482
vt 1.000000 0.500000
vt 1.000000 1.000000
vt 0.833333 1.000000
vt 0.833333 0.500000
vt 0.666667 1.000000
vt 0.666667 0.500000
vt 0.500000 1.000000
vt 0.500000 0.500000
vt 0.333333 1.000000
vt 0.333333 0.500000
vt 0.457846 0.370000
vt 0.250000 0.490000
vt 0.042154 0.370000
vt 0.042154 0.130000
vt 0.250000 0.010000
vt 0.457846 0.130000
vt 0.166667 1.000000
vt 0.166667 0.500000
vt -0.000000 1.000000
vt -0.000000 0.500000
vt 0.750000 0.490000
vt 0.957846 0.370000
vt 0.957846 0.130000
vt 0.750000 0.010000
vt 0.542154 0.130000
vt 0.542154 0.370000
vt 0.800000 1.000000
vt 0.800000 0.500000
vt 0.600000 1.000000
vt 0.600000 0.500000
vt 0.400000 1.000000
vt 0.400000 0.500000
vt 0.478254 0.324164
vt 0.250000 0.490000
vt 0.021746 0.324164
vt 0.108932 0.055836
vt 0.391068 0.055836
vt 0.200000 1.000000
vt 0.200000 0.500000
vt 0.000000 1.000000
vt 0.000000 0.500000
vt 0.750000 0.490000
vt 0.978254 0.324164
vt 0.750000 0.257078
vt 0.891068 0.055836
vt 0.608932 0.055836
vt 0.521746 0.324164
s 0
usemtl Material
f 84/95/74 85/96/74 87/121/74 86/122/74
f 86/122/75 87/121/75 89/123/75 88/124/75
f 88/124/76 89/123/76 91/125/76 90/126/76
f 87/127/77 85/128/77 93/129/77 91/130/77 89/131/77
f 90/126/78 91/125/78 93/132/78 92/133/78
f 92/133/79 93/132/79 85/134/79 84/135/79
f 84/136/80 86/137/80 94/138/80
f 86/137/80 88/139/80 94/138/80
f 88/139/80 90/140/80 94/138/80
f 90/140/80 92/141/80 94/138/80
f 92/141/80 84/136/80 94/138/80
usemtl Red
f 72/95/66 73/96/66 75/97/66 74/98/66
f 74/98/67 75/97/67 77/99/67 76/100/67
f 76/100/68 77/99/68 79/101/68 78/102/68
f 78/102/69 79/101/69 81/103/69 80/104/69
f 75/105/70 73/106/70 83/107/70 81/108/70 79/109/70 77/110/70
f 80/104/71 81/103/71 83/111/71 82/112/71
f 82/112/72 83/111/72 73/113/72 72/114/72
f 72/115/73 74/116/73 76/117/73 78/118/73 80/119/73 82/120/73
